<?xml version="1.0" encoding="utf-8"?>
<!-- Generator: Adobe Illustrator 25.2.3, SVG Export Plug-In . SVG Version: 6.00 Build 0)  -->
<svg version="1.1"
	 id="svg815" inkscape:export-xdpi="96" inkscape:export-ydpi="96" sodipodi:docname="ElectrarNoTxtWhite.svg" xmlns:cc="http://creativecommons.org/ns#" xmlns:dc="http://purl.org/dc/elements/1.1/" xmlns:inkscape="http://www.inkscape.org/namespaces/inkscape" xmlns:rdf="http://www.w3.org/1999/02/22-rdf-syntax-ns#" xmlns:sodipodi="http://sodipodi.sourceforge.net/DTD/sodipodi-0.dtd" xmlns:svg="http://www.w3.org/2000/svg"
	 xmlns="http://www.w3.org/2000/svg" xmlns:xlink="http://www.w3.org/1999/xlink" x="0px" y="0px" viewBox="0 0 915 915"
	 style="enable-background:new 0 0 915 915;" xml:space="preserve">
<style type="text/css">
	.st0{fill:none;}
	.st1{fill-rule:evenodd;clip-rule:evenodd;fill:url(#path14_1_);}
	.st2{fill-rule:evenodd;clip-rule:evenodd;fill:url(#path16_1_);}
	.st3{fill-rule:evenodd;clip-rule:evenodd;fill:url(#path18_1_);}
	.st4{fill-rule:evenodd;clip-rule:evenodd;fill:url(#path20_1_);}
	.st5{fill-rule:evenodd;clip-rule:evenodd;fill:url(#path22_1_);}
	.st6{fill-rule:evenodd;clip-rule:evenodd;fill:url(#path24_1_);}
	.st7{fill-rule:evenodd;clip-rule:evenodd;fill:url(#path26_1_);}
	.st8{fill-rule:evenodd;clip-rule:evenodd;fill:url(#path28_1_);}
	.st9{fill-rule:evenodd;clip-rule:evenodd;fill:url(#path30_1_);}
	.st10{fill-rule:evenodd;clip-rule:evenodd;fill:url(#path32_1_);}
	.st11{fill-rule:evenodd;clip-rule:evenodd;fill:url(#path34_1_);}
	.st12{fill:url(#path2_1_);}
</style>
<sodipodi:namedview  bordercolor="#666666" borderopacity="1" gridtolerance="10" guidetolerance="10" id="namedview6" inkscape:current-layer="svg815" inkscape:cx="251.59717" inkscape:cy="429.36978" inkscape:pageopacity="0" inkscape:pageshadow="2" inkscape:window-height="1053" inkscape:window-maximized="1" inkscape:window-width="1920" inkscape:window-x="0" inkscape:window-y="0" inkscape:zoom="0.35355339" objecttolerance="10" pagecolor="#ffffff" showgrid="false">
	</sodipodi:namedview>
<g>
	<path id="path840" inkscape:connector-curvature="0" class="st0" d="M0,0"/>
	<path id="path850" inkscape:connector-curvature="0" class="st0" d="M0,0"/>
	<path id="path852" inkscape:connector-curvature="0" class="st0" d="M0,0"/>
	<path id="path878" inkscape:connector-curvature="0" class="st0" d="M0,0"/>
	<path id="path880" inkscape:connector-curvature="0" class="st0" d="M0,0"/>
	<path id="path914" inkscape:connector-curvature="0" class="st0" d="M0,0"/>
	<path id="path956" inkscape:connector-curvature="0" class="st0" d="M0,0"/>
	<path id="path958" inkscape:connector-curvature="0" class="st0" d="M0,0"/>
	<path id="path978" inkscape:connector-curvature="0" class="st0" d="M0,0"/>
	<path id="path1002" inkscape:connector-curvature="0" class="st0" d="M0,0"/>
	<path id="path1004" inkscape:connector-curvature="0" class="st0" d="M0,0"/>
	<path id="path1006" inkscape:connector-curvature="0" class="st0" d="M0,0"/>
	<path id="path1012" inkscape:connector-curvature="0" class="st0" d="M0,0"/>
	
		<linearGradient id="path14_1_" gradientUnits="userSpaceOnUse" x1="388.4077" y1="833.4681" x2="529.3105" y2="91.6638" gradientTransform="matrix(1 0 0 -1 0 916)">
		<stop  offset="0" style="stop-color:#E6E6E6"/>
		<stop  offset="1" style="stop-color:#E6E6E6;stop-opacity:0"/>
	</linearGradient>
	<path id="path14" inkscape:connector-curvature="0" class="st1" d="M283.4,102.5l235.7-14.1c-124.5-4.2-198.4-4.2-221.6-1.7
		l-34.9,7.5C258.5,98.3,265.9,100.8,283.4,102.5"/>
	
		<linearGradient id="path16_1_" gradientUnits="userSpaceOnUse" x1="376.7421" y1="831.2522" x2="517.6448" y2="89.448" gradientTransform="matrix(1 0 0 -1 0 916)">
		<stop  offset="0" style="stop-color:#E6E6E6"/>
		<stop  offset="1" style="stop-color:#E6E6E6;stop-opacity:0"/>
	</linearGradient>
	<path id="path16" inkscape:connector-curvature="0" class="st2" d="M231.1,161.4l387.6-8.3l-375.1-13.3c-49.8-3.3-77.2,0-81.3,9.1
		C154.7,161.4,178.8,165.6,231.1,161.4"/>
	
		<linearGradient id="path18_1_" gradientUnits="userSpaceOnUse" x1="360.5098" y1="828.1689" x2="501.4125" y2="86.3647" gradientTransform="matrix(1 0 0 -1 0 916)">
		<stop  offset="0" style="stop-color:#E6E6E6"/>
		<stop  offset="1" style="stop-color:#E6E6E6;stop-opacity:0"/>
	</linearGradient>
	<path id="path18" inkscape:connector-curvature="0" class="st3" d="M94.1,236.1l585.2-20.8l-527.1-6.6c-39.8,0-60.6,4.1-60.6,12.4
		L94.1,236.1"/>
	
		<linearGradient id="path20_1_" gradientUnits="userSpaceOnUse" x1="350.3535" y1="826.2398" x2="491.2563" y2="84.4356" gradientTransform="matrix(1 0 0 -1 0 916)">
		<stop  offset="0" style="stop-color:#E6E6E6"/>
		<stop  offset="1" style="stop-color:#E6E6E6;stop-opacity:0"/>
	</linearGradient>
	<path id="path20" inkscape:connector-curvature="0" class="st4" d="M133.1,314.1l587.6-26.5l-636.6-10
		c-16.6,1.7-25.7,5.8-27.4,14.1C54.3,310,79.2,316.6,133.1,314.1"/>
	
		<linearGradient id="path22_1_" gradientUnits="userSpaceOnUse" x1="338.0974" y1="823.9118" x2="479.0002" y2="82.1076" gradientTransform="matrix(1 0 0 -1 0 916)">
		<stop  offset="0" style="stop-color:#E6E6E6"/>
		<stop  offset="1" style="stop-color:#E6E6E6;stop-opacity:0"/>
	</linearGradient>
	<path id="path22" inkscape:connector-curvature="0" class="st5" d="M48.5,345.7L744,363.1l-643.2,18.3c-41.5,0-63.1-6.7-66.4-22.4
		C33.5,352.3,38.5,346.5,48.5,345.7"/>
	
		<linearGradient id="path24_1_" gradientUnits="userSpaceOnUse" x1="106.2746" y1="779.878" x2="247.1774" y2="38.0738" gradientTransform="matrix(1 0 0 -1 0 916)">
		<stop  offset="0" style="stop-color:#E6E6E6"/>
		<stop  offset="1" style="stop-color:#E6E6E6;stop-opacity:0"/>
	</linearGradient>
	<path id="path24" inkscape:connector-curvature="0" class="st6" d="M42.7,451.9l219.9-2.5l30.7-34.9H73.4c-33.2,0-48.1,7.5-44,22.4
		C30.2,445.3,34.3,451.1,42.7,451.9"/>
	
		<linearGradient id="path26_1_" gradientUnits="userSpaceOnUse" x1="76.5382" y1="774.2297" x2="217.441" y2="32.4255" gradientTransform="matrix(1 0 0 -1 0 916)">
		<stop  offset="0" style="stop-color:#E6E6E6"/>
		<stop  offset="1" style="stop-color:#E6E6E6;stop-opacity:0"/>
	</linearGradient>
	<path id="path26" inkscape:connector-curvature="0" class="st7" d="M91.6,525.8l139.5-10l18.3-31.5l-163.5,2.5
		c-31.5,0-47.3,6.6-47.3,19.1c0,10,4.2,15.8,11.6,16.6L91.6,525.8"/>
	
		<linearGradient id="path28_1_" gradientUnits="userSpaceOnUse" x1="177.9611" y1="793.4946" x2="318.8639" y2="51.6903" gradientTransform="matrix(1 0 0 -1 0 916)">
		<stop  offset="0" style="stop-color:#E6E6E6"/>
		<stop  offset="1" style="stop-color:#E6E6E6;stop-opacity:0"/>
	</linearGradient>
	<path id="path28" inkscape:connector-curvature="0" class="st8" d="M113.2,592.2l354.4-14.1l-24.9-24.9l-342,2.5l-35.7,4.1
		c-4.2,3.3-5.8,8.3-4.2,15.8C63.4,590.5,81.7,596.3,113.2,592.2"/>
	
		<linearGradient id="path30_1_" gradientUnits="userSpaceOnUse" x1="216.1437" y1="800.7472" x2="357.0465" y2="58.943" gradientTransform="matrix(1 0 0 -1 0 916)">
		<stop  offset="0" style="stop-color:#E6E6E6"/>
		<stop  offset="1" style="stop-color:#E6E6E6;stop-opacity:0"/>
	</linearGradient>
	<path id="path30" inkscape:connector-curvature="0" class="st9" d="M514.9,636.2l-352.8-2.5c-43.2,0-62.3,5-61.4,17.4
		c4.1,15.8,28.2,19.9,73.9,15.8l361.9-8.3L514.9,636.2"/>
	
		<linearGradient id="path32_1_" gradientUnits="userSpaceOnUse" x1="265.6941" y1="810.1591" x2="406.5969" y2="68.3549" gradientTransform="matrix(1 0 0 -1 0 916)">
		<stop  offset="0" style="stop-color:#E6E6E6"/>
		<stop  offset="1" style="stop-color:#E6E6E6;stop-opacity:0"/>
	</linearGradient>
	<path id="path32" inkscape:connector-curvature="0" class="st10" d="M558.9,708.4l-379.3-3.3c-8.3,0-12.4,3.3-12.4,10
		c0,12.5,26.5,18.3,78.8,14.9l350.2-12.5L558.9,708.4"/>
	
		<linearGradient id="path34_1_" gradientUnits="userSpaceOnUse" x1="269.4572" y1="810.8739" x2="410.3599" y2="69.0696" gradientTransform="matrix(1 0 0 -1 0 916)">
		<stop  offset="0" style="stop-color:#E6E6E6"/>
		<stop  offset="1" style="stop-color:#E6E6E6;stop-opacity:0"/>
	</linearGradient>
	<path id="path34" inkscape:connector-curvature="0" class="st11" d="M319.9,781.4l207.5-6.7l-217.5-8.3c-29-4.1-44-1.7-44,8.3
		L319.9,781.4"/>
	
		<linearGradient id="path2_1_" gradientUnits="userSpaceOnUse" x1="747.3184" y1="172.6501" x2="9.0989" y2="1207.8545" gradientTransform="matrix(1 0 0 -1 0 916)">
		<stop  offset="0" style="stop-color:#B3B3B3"/>
		<stop  offset="1" style="stop-color:#E6E6E6;stop-opacity:0"/>
	</linearGradient>
	
		<path id="path2" inkscape:connector-curvature="0" sodipodi:nodetypes="sccccsscccsccsccsccssccssccssccccssccssccccsscccscsssccccscccsssccccccscc" class="st12" d="
		M761.6,695.5c26.5,0,51.3-10.3,70-29c18.7-18.7,62.7-139.4,62.7-165.8l-64.1,95.8c0,18.3-7.1,35.6-20.1,48.5
		c-12.9,13-30.2,20.1-48.5,20.1c-37.8,0-68.6-30.8-68.6-68.6v-88.8c0.9-0.2,1.9-0.3,2.8-0.5c30-6.2,54.2-27.5,64.5-55.7h28.7
		c22.1,0,42.5-10,56.1-27.5c13.5-17.4,18-39.6,12.5-60.9c-32.8-126.1-147.1-214.2-278-214.2c-130.9,0-245.2,88.1-278,214.2
		c-5.5,21.3-1,43.4,12.5,60.9c13.5,17.5,34,27.5,56.1,27.5H399c10.8,29.3,36.7,50.8,67.3,56.2v88.8c0,37.8-30.8,68.6-68.6,68.6
		c-37.8,0-78.3-162.8-78.3-200.6l-20.7,87.4c0,54.6,44.4,143.7,99,143.7c54.6,0,99-44.4,99-99v-87.5h35.1v232.9
		c0,37.8-30.8,68.6-68.6,68.6c-18.3,0-35.5-7.1-48.5-20.1c-13-12.9-20.1-30.1-20.1-48.5h-30.4c0,26.5,10.3,51.3,29,70
		c18.7,18.7,43.5,29,70,29c54.6,0,99-44.4,99-99V508.9h34.9v232.9c0,54.6,44.4,99,99,99c26.5,0,51.3-10.3,70-29
		c18.7-18.7,29-43.5,29-70h-30.4c0,18.3-7.1,35.5-20.1,48.5c-12.9,13-30.1,20.1-48.5,20.1c-37.8,0-68.6-30.8-68.6-68.6V508.9h35.1
		v87.5C662.6,651.1,707.1,695.5,761.6,695.5L761.6,695.5z M696,421c-6-8.2-9.3-18.1-9.3-28.4c0-26.5,21.6-48.1,48.1-48.1
		c26.5,0,48.1,21.6,48.1,48.1c0,10.3-3.3,20.2-9.3,28.4H696z M338.2,405.3c-7.7-9.9-10.2-22.5-7.1-34.6
		C360.4,258,462.6,179.3,579.7,179.3S798.9,258,828.2,370.7c3.1,12.1,0.6,24.7-7.1,34.6c-3.1,4.1-6.9,7.4-11.2,10
		c2.2-7.3,3.3-14.9,3.3-22.6c0-43.3-353-32.3-396.3-32.3c-43.3,0,239.3-11,239.3,32.3c0,9.8,1.8,19.4,5.3,28.4H370.2
		C357.6,421,345.9,415.3,338.2,405.3L338.2,405.3z M432.6,451.4h294.1c-8.1,13.1-21.4,22.7-37,25.9c-3.8,0.8-7.7,1.2-11.6,1.2H481.3
		C461.1,478.5,442.9,467.8,432.6,451.4z"/>
	<g id="g186" transform="matrix(0.48569656,0,0,0.48569656,677.90495,242.05873)">
		<g id="g6" transform="matrix(2.5334491,0,0,2.5334491,-832.50346,112.05422)">
		</g>
	</g>
</g>
</svg>
